<?xml version="1.0" encoding="UTF-8" standalone="no"?>
<svg width="240" height="60" viewBox="0 0 240 60" fill="none" xmlns="http://www.w3.org/2000/svg">
  <!-- Background gradient -->
  <defs>
    <linearGradient id="gradient" x1="0%" y1="0%" x2="100%" y2="100%">
      <stop offset="0%" stop-color="#3b82f6" />
      <stop offset="100%" stop-color="#8b5cf6" />
    </linearGradient>
  </defs>
  
  <!-- Mail Icon -->
  <g transform="translate(10, 15) scale(0.8)">
    <rect x="0" y="0" width="40" height="30" rx="4" fill="url(#gradient)" />
    <path d="M0 4C0 1.79086 1.79086 0 4 0H36C38.2091 0 40 1.79086 40 4V6L20 18L0 6V4Z" fill="#4f46e5" />
    <path d="M0 6L20 18L40 6V26C40 28.2091 38.2091 30 36 30H4C1.79086 30 0 28.2091 0 26V6Z" fill="url(#gradient)" />
  </g>
  
  <!-- Text: MailChats -->
  <text x="50" y="32" font-family="Arial, sans-serif" font-weight="bold" font-size="20" fill="#1e293b">
    Mail<tspan fill="url(#gradient)">Chats</tspan>
  </text>
  
  <!-- Text: Trly APIX2 -->
  <text x="50" y="48" font-family="Arial, sans-serif" font-size="12" fill="#64748b">
    Trly <tspan font-weight="bold">APIX2</tspan>
  </text>
  
  <!-- Decorative elements -->
  <circle cx="230" cy="20" r="5" fill="url(#gradient)" opacity="0.7" />
  <circle cx="215" cy="30" r="3" fill="url(#gradient)" opacity="0.5" />
  <circle cx="225" cy="40" r="4" fill="url(#gradient)" opacity="0.6" />
</svg>